<svg version="1.1" id="Layer_1" xmlns="http://www.w3.org/2000/svg" xmlns:xlink="http://www.w3.org/1999/xlink" x="2px" y="14px" width="97px" height="71px" viewBox="2 14 97 71" enable-background="2 14 97 71" xml:space="preserve"><desc>Copyright Opto 22</desc> <desc>Created with Snap</desc><defs/><g xmlns="http://www.w3.org/2000/svg">
<g id="shadow">
	<path fill="#ffffff" d="M97.243,70.53c-1.779,2.709-4.676,4.905-7.327,4.905c0,0-3.97,0.245-7.796,0.442l-0.068,6.395
		c0,0-0.495,3.579,7.652,3.579c8.147,0,7.652-3.579,7.652-3.579L97.243,70.53z" style=""></path>
	<path fill="#ffffff" d="M19.486,75.565c-3.751-0.189-8.875-0.587-8.875-0.587c-2.169,0-4.502-1.47-6.254-3.487L4.253,82.272
		c0,0-0.495,3.579,7.652,3.579c8.147,0,7.652-3.579,7.652-3.579L19.486,75.565z" style=""></path>
</g>
<g id="shape">
	<path fill="#ffffff" d="M74.254,41.878c0.609-2.741,2.741-6.396,5.787-9.441" style=""></path>
	<path fill="#ffffff" d="M21.147,32.436c3.046,3.046,5.177,6.7,5.787,9.441" style=""></path>
	<path fill="#ffffff" d="M53.887,17.703h-9.441c-1.256,0-2.284,0.762-2.284,1.694c0,0.932,1.024,1.778,2.277,1.88l2.452,0.2
		c1.252,0.102,3.301,0.102,4.553,0l2.452-0.2c1.252-0.102,2.277-0.948,2.277-1.88C56.171,18.466,55.143,17.703,53.887,17.703z
		 M53.509,21.143l-2.252,0.184c-1.15,0.094-3.032,0.094-4.182,0l-2.252-0.184c-1.15-0.094-2.091-0.871-2.091-1.726
		s0.944-1.556,2.098-1.556h8.672c1.154,0,2.098,0.7,2.098,1.556S54.659,21.049,53.509,21.143z" style=""></path>
	<path fill="#ffffff" d="M87.42,30.094l3.274-3.464c0,0,5.939-0.533,8.223,2.208c1.485,1.782,0.836,2.527-0.914,3.388
		c-2.398,1.18-6.262-0.343-6.633,1.18c-0.372,1.523-0.372,0.952-0.372,0.952" style=""></path>
	<path fill="#ffffff" d="M2.821,29.637c2.284-2.741,8.223-2.208,8.223-2.208l2.979,3.152l0.409-0.487l-3.274-3.464
		c0,0-5.939-0.533-8.223,2.208c-0.662,0.794-0.897,1.381-0.803,1.866C2.261,30.392,2.484,30.042,2.821,29.637z" style=""></path>
	<path fill="#ffffff" d="M96.604,38.888c0,0-2.617-2.741-5.234-6.396c-2.617-3.655-9.596-15.228-9.596-15.228
		s-10.76-3.046-30.825-3.046c-20.065,0-30.825,3.046-30.825,3.046s-0.017,0.029-0.042,0.07c4.199-0.86,13.858-2.43,28.43-2.43
		c20.065,0,30.825,2.978,30.825,2.978s6.979,11.317,9.596,14.891c2.617,3.574,5.234,6.254,5.234,6.254s2.617,3.276,2.617,7.147
		s0,15.188-0.291,19.358s-4.944,9.232-9.015,9.232c0,0-11.1,0.67-14.069,0.67s-5.368-1.564-25.925-1.564
		c-20.558,0-23.184,1.564-26.154,1.564s-11.785-0.67-11.785-0.67c-0.09,0-0.182-0.01-0.273-0.015
		c0.896,0.434,1.817,0.685,2.709,0.685c0,0,8.816,0.685,11.785,0.685s5.596-1.599,26.154-1.599c20.558,0,22.956,1.599,25.925,1.599
		s14.069-0.685,14.069-0.685c4.071,0,8.724-5.177,9.015-9.441c0.291-4.264,0.291-15.837,0.291-19.796S96.604,38.888,96.604,38.888z" style=""></path>
	<path fill="#ffffff" d="M92.978,47.225c-0.554-2.493-1.142-2.627-2.741-2.855c-1.599-0.228-6.738-0.914-7.995-0.228
		c-0.078,0.042-0.163,0.114-0.255,0.211c1.976-0.203,5.679,0.275,6.993,0.457c1.599,0.221,2.187,0.35,2.741,2.758
		c0.457,1.985,0.421,6.919-0.571,8.052c-0.704,0.804-5.535,1.503-9.565,1.575c4.208,0.079,10.042-0.709,10.821-1.631
		C93.399,54.389,93.435,49.281,92.978,47.225z" style=""></path>
	<path fill="#ffffff" d="M23.354,55.905c-0.582-2.912-3.769-11.078-5.025-11.764s-6.396,0-7.995,0.228
		c-0.736,0.105-1.257,0.193-1.66,0.498c0.128-0.02,0.26-0.039,0.404-0.059c1.599-0.221,6.738-0.882,7.995-0.221
		c1.256,0.662,4.443,8.549,5.025,11.361c0.173,0.836-1.788,1.196-4.356,1.244C20.895,57.25,23.554,56.907,23.354,55.905z" style=""></path>
	<path fill="#ffffff" d="M24.164,32.337c3.59,2.009,48.462,2.009,52.052,0c3.59-2.009,3.141-9.82,2.692-11.382
		c-0.449-1.562-11.891-3.348-28.718-3.348c-15.958,0-27.066,1.606-28.554,3.104c1.036-1.566,12.509-3.295,29.171-3.295
		c17.131,0,28.781,1.827,29.238,3.426c0.457,1.599,0.914,9.594-2.741,11.649c-3.655,2.056-49.338,2.056-52.993,0
		c-0.376-0.211-0.706-0.488-0.999-0.812C23.567,31.938,23.849,32.161,24.164,32.337z" style=""></path>
</g>
<g id="dark">
	<path fill="#ffffff" d="M31.774,28.934c3.872,0,7.011,2.207,7.011,4.93h0.876C39.661,31.141,36.13,28.934,31.774,28.934" style=""></path>
	<polyline fill="#ffffff" points="36.946,31.409 34.052,33.388 34.814,33.35 37.326,31.599 	" style=""></polyline>
	<polygon fill="#ffffff" points="31.311,33.35 28.799,31.523 29.408,31.523 31.921,33.35 	" style=""></polygon>
	<path fill="#ffffff" d="M71.109,33.501c-19.396-2.03-31.703-1.15-31.824-1.141l-0.034-0.456c0.123-0.009,12.466-0.892,31.905,1.143
		L71.109,33.501z" style=""></path>
	
		<rect x="30.587" y="31.96" transform="matrix(0.9996 -0.0299 0.0299 0.9996 -0.948 0.9854)" fill="#ffffff" width="3.771" height="0.457" style=""></rect>
	<polygon fill="#ffffff" points="25.805,32.931 25.778,32.475 27.72,32.361 27.746,32.817 	" style=""></polygon>
</g>
</g></svg>